<mxfile host="app.diagrams.net" modified="2024-07-15T15:21:48.021Z" agent="Mozilla/5.0 (Windows NT 10.0; Win64; x64) AppleWebKit/537.36 (KHTML, like Gecko) Chrome/107.0.0.0 Safari/537.36" version="24.6.5" etag="jF-EnpbTyrruDVsRZ2b0" type="github">
  <diagram name="第 1 页" id="Z0SN7KyGVVp2tUFVI5_2">
    <mxGraphModel>
      <root>
        <mxCell id="0" />
        <mxCell id="1" parent="0" />
      </root>
    </mxGraphModel>
  </diagram>
</mxfile>
